<?xml version="1.0" standalone="no"?>
<!DOCTYPE svg PUBLIC "-//W3C//DTD SVG 20010904//EN"
 "http://www.w3.org/TR/2001/REC-SVG-20010904/DTD/svg10.dtd">
<svg version="1.0" xmlns="http://www.w3.org/2000/svg"
 width="48.000000pt" height="48.000000pt" viewBox="0 0 48.000000 48.000000"
 preserveAspectRatio="xMidYMid meet">

<g transform="translate(0.000000,48.000000) scale(0.100000,-0.100000)"
fill="#000000" stroke="none">
<path d="M154 381 c-36 -22 -50 -54 -58 -133 -6 -52 -3 -61 24 -101 69 -103
168 -112 227 -20 10 15 26 34 36 42 19 14 19 15 -1 106 -12 55 -21 69 -65 99
-47 32 -117 35 -163 7z m149 -33 c41 -29 47 -38 47 -66 0 -23 -1 -22 -26 7
l-26 31 -27 -20 c-16 -10 -48 -22 -72 -26 -24 -3 -50 -13 -56 -22 -11 -14 -13
-11 -13 16 0 41 17 78 44 90 37 18 94 14 129 -10z m19 -120 c11 -36 10 -42 -7
-54 -10 -8 -34 -14 -52 -14 -27 0 -33 -4 -33 -21 0 -22 0 -22 75 -3 18 5 17 3
-4 -16 -13 -11 -34 -23 -47 -26 -31 -8 -92 30 -100 61 -3 13 -12 26 -20 29
-19 7 -18 26 1 26 9 0 18 6 21 14 3 8 24 17 47 20 23 4 53 13 67 21 31 17 37
13 52 -37z"/>
</g>
</svg>
